<svg width="66" height="14" viewBox="0 0 66 14" fill="none" xmlns="http://www.w3.org/2000/svg">
<path d="M10.268 9.994C10.04 10.654 9.698 11.224 9.242 11.704C8.798 12.184 8.258 12.55 7.622 12.802C6.998 13.054 6.296 13.18 5.516 13.18C4.436 13.18 3.488 12.934 2.672 12.442C1.868 11.938 1.238 11.23 0.782 10.318C0.338 9.406 0.116 8.32 0.116 7.06C0.116 5.8 0.338 4.714 0.782 3.802C1.226 2.89 1.85 2.188 2.654 1.696C3.47 1.192 4.418 0.94 5.498 0.94C6.302 0.94 7.004 1.054 7.604 1.282C8.216 1.498 8.732 1.828 9.152 2.272C9.572 2.704 9.89 3.238 10.106 3.874L9.224 4.288C8.948 3.46 8.51 2.836 7.91 2.416C7.31 1.984 6.524 1.768 5.552 1.768C4.664 1.768 3.878 1.984 3.194 2.416C2.522 2.836 1.994 3.442 1.61 4.234C1.238 5.014 1.052 5.956 1.052 7.06C1.052 8.152 1.238 9.094 1.61 9.886C1.982 10.678 2.504 11.29 3.176 11.722C3.848 12.142 4.628 12.352 5.516 12.352C6.476 12.352 7.292 12.124 7.964 11.668C8.636 11.2 9.104 10.528 9.368 9.652L10.268 9.994ZM16.2271 3.82C17.0671 3.82 17.8051 4.006 18.4411 4.378C19.0891 4.75 19.5931 5.29 19.9531 5.998C20.3251 6.694 20.5111 7.528 20.5111 8.5C20.5111 9.472 20.3251 10.312 19.9531 11.02C19.5931 11.716 19.0891 12.25 18.4411 12.622C17.8051 12.994 17.0671 13.18 16.2271 13.18C15.3871 13.18 14.6431 12.994 13.9951 12.622C13.3591 12.25 12.8551 11.716 12.4831 11.02C12.1231 10.312 11.9431 9.472 11.9431 8.5C11.9431 7.528 12.1231 6.694 12.4831 5.998C12.8551 5.29 13.3591 4.75 13.9951 4.378C14.6431 4.006 15.3871 3.82 16.2271 3.82ZM16.2271 4.594C15.5431 4.594 14.9491 4.75 14.4451 5.062C13.9411 5.374 13.5451 5.824 13.2571 6.412C12.9811 6.988 12.8431 7.684 12.8431 8.5C12.8431 9.304 12.9811 10 13.2571 10.588C13.5451 11.176 13.9411 11.626 14.4451 11.938C14.9491 12.25 15.5431 12.406 16.2271 12.406C16.9111 12.406 17.5051 12.25 18.0091 11.938C18.5131 11.626 18.9031 11.176 19.1791 10.588C19.4671 10 19.6111 9.304 19.6111 8.5C19.6111 7.684 19.4671 6.988 19.1791 6.412C18.9031 5.824 18.5131 5.374 18.0091 5.062C17.5051 4.75 16.9111 4.594 16.2271 4.594ZM23.0844 13V4H23.8944L23.9664 6.25L23.8224 6.124C23.9904 5.632 24.2424 5.218 24.5784 4.882C24.9144 4.534 25.3164 4.27 25.7844 4.09C26.2524 3.91 26.7564 3.82 27.2964 3.82C27.9684 3.82 28.5624 3.946 29.0784 4.198C29.5944 4.45 29.9964 4.822 30.2844 5.314C30.5844 5.806 30.7344 6.424 30.7344 7.168V13H29.8344V7.456C29.8344 6.472 29.5884 5.752 29.0964 5.296C28.6164 4.84 27.9864 4.612 27.2064 4.612C26.6424 4.612 26.1144 4.744 25.6224 5.008C25.1424 5.26 24.7464 5.632 24.4344 6.124C24.1344 6.616 23.9844 7.216 23.9844 7.924V13H23.0844ZM35.1077 1.498V10.624C35.1077 11.188 35.2397 11.62 35.5037 11.92C35.7797 12.208 36.1757 12.352 36.6917 12.352C37.0277 12.352 37.3217 12.298 37.5737 12.19C37.8377 12.07 38.0717 11.902 38.2757 11.686L38.6177 12.424C38.3897 12.652 38.1017 12.838 37.7537 12.982C37.4057 13.114 37.0157 13.18 36.5837 13.18C36.1157 13.18 35.7017 13.096 35.3417 12.928C34.9817 12.748 34.6997 12.478 34.4957 12.118C34.3037 11.758 34.2077 11.302 34.2077 10.75V1.75L35.1077 1.498ZM38.4737 4V4.774H32.4077V4H38.4737ZM44.0709 13.18C43.2429 13.18 42.5049 12.994 41.8569 12.622C41.2089 12.25 40.6989 11.716 40.3269 11.02C39.9669 10.312 39.7869 9.472 39.7869 8.5C39.7869 7.528 39.9669 6.694 40.3269 5.998C40.6989 5.29 41.1969 4.75 41.8209 4.378C42.4449 4.006 43.1589 3.82 43.9629 3.82C44.7789 3.82 45.4749 4 46.0509 4.36C46.6269 4.72 47.0709 5.224 47.3829 5.872C47.6949 6.508 47.8509 7.246 47.8509 8.086C47.8509 8.194 47.8449 8.302 47.8329 8.41C47.8329 8.506 47.8269 8.596 47.8149 8.68H40.3449V7.87H47.4189L46.9689 7.996C46.9569 6.964 46.6809 6.142 46.1409 5.53C45.6129 4.918 44.8809 4.612 43.9449 4.612C43.2969 4.612 42.7269 4.768 42.2349 5.08C41.7429 5.38 41.3589 5.824 41.0829 6.412C40.8069 6.988 40.6689 7.684 40.6689 8.5C40.6689 9.304 40.8069 10 41.0829 10.588C41.3709 11.176 41.7669 11.626 42.2709 11.938C42.7869 12.238 43.3809 12.388 44.0529 12.388C44.7489 12.388 45.3429 12.238 45.8349 11.938C46.3389 11.638 46.7289 11.224 47.0049 10.696L47.7249 11.11C47.5089 11.542 47.2209 11.914 46.8609 12.226C46.5009 12.526 46.0869 12.76 45.6189 12.928C45.1509 13.096 44.6349 13.18 44.0709 13.18ZM50.4184 13V4H51.2284L51.3004 6.25L51.1564 6.124C51.3244 5.632 51.5764 5.218 51.9124 4.882C52.2484 4.534 52.6504 4.27 53.1184 4.09C53.5864 3.91 54.0904 3.82 54.6304 3.82C55.3024 3.82 55.8964 3.946 56.4124 4.198C56.9284 4.45 57.3304 4.822 57.6184 5.314C57.9184 5.806 58.0684 6.424 58.0684 7.168V13H57.1684V7.456C57.1684 6.472 56.9224 5.752 56.4304 5.296C55.9504 4.84 55.3204 4.612 54.5404 4.612C53.9764 4.612 53.4484 4.744 52.9564 5.008C52.4764 5.26 52.0804 5.632 51.7684 6.124C51.4684 6.616 51.3184 7.216 51.3184 7.924V13H50.4184ZM62.4417 1.498V10.624C62.4417 11.188 62.5737 11.62 62.8377 11.92C63.1137 12.208 63.5097 12.352 64.0257 12.352C64.3617 12.352 64.6557 12.298 64.9077 12.19C65.1717 12.07 65.4057 11.902 65.6097 11.686L65.9517 12.424C65.7237 12.652 65.4357 12.838 65.0877 12.982C64.7397 13.114 64.3497 13.18 63.9177 13.18C63.4497 13.18 63.0357 13.096 62.6757 12.928C62.3157 12.748 62.0337 12.478 61.8297 12.118C61.6377 11.758 61.5417 11.302 61.5417 10.75V1.75L62.4417 1.498ZM65.8077 4V4.774H59.7417V4H65.8077Z" fill="#028090"/>
</svg>
