<svg width="32" height="32" viewBox="0 0 32 32" fill="none" xmlns="http://www.w3.org/2000/svg">
<rect width="32" height="32" rx="8" fill="#FFFDF5"/>
<path d="M6.5 9.292V18.652C6.5 19.036 6.56 19.312 6.68 19.48C6.8 19.648 7.01 19.732 7.31 19.732C7.454 19.732 7.58 19.726 7.688 19.714C7.808 19.69 7.934 19.654 8.066 19.606L7.868 21.658C7.652 21.814 7.346 21.94 6.95 22.036C6.566 22.132 6.182 22.18 5.798 22.18C4.754 22.18 4.004 21.952 3.548 21.496C3.092 21.028 2.864 20.254 2.864 19.174V9.292H6.5ZM13.3937 12.82C14.3777 12.82 15.2357 13.006 15.9677 13.378C16.6997 13.738 17.2697 14.266 17.6777 14.962C18.0857 15.658 18.2897 16.504 18.2897 17.5C18.2897 18.484 18.0857 19.33 17.6777 20.038C17.2697 20.734 16.6997 21.268 15.9677 21.64C15.2357 22 14.3777 22.18 13.3937 22.18C12.4337 22.18 11.5817 22 10.8377 21.64C10.1057 21.268 9.52972 20.734 9.10972 20.038C8.70172 19.33 8.49772 18.484 8.49772 17.5C8.49772 16.504 8.70172 15.658 9.10972 14.962C9.52972 14.266 10.1057 13.738 10.8377 13.378C11.5817 13.006 12.4337 12.82 13.3937 12.82ZM13.3937 15.322C13.1297 15.322 12.9017 15.388 12.7097 15.52C12.5297 15.652 12.3917 15.88 12.2957 16.204C12.1997 16.528 12.1517 16.96 12.1517 17.5C12.1517 18.04 12.1997 18.472 12.2957 18.796C12.3917 19.108 12.5297 19.336 12.7097 19.48C12.9017 19.612 13.1297 19.678 13.3937 19.678C13.6697 19.678 13.8977 19.612 14.0777 19.48C14.2577 19.336 14.3957 19.108 14.4917 18.796C14.5877 18.472 14.6357 18.04 14.6357 17.5C14.6357 16.96 14.5877 16.528 14.4917 16.204C14.3957 15.88 14.2577 15.652 14.0777 15.52C13.8977 15.388 13.6697 15.322 13.3937 15.322ZM22.6215 22.18C22.0095 22.18 21.4755 22.078 21.0195 21.874C20.5755 21.658 20.2275 21.322 19.9755 20.866C19.7355 20.398 19.6155 19.792 19.6155 19.048V13H23.2515V18.202C23.2515 18.658 23.3355 18.982 23.5035 19.174C23.6715 19.366 23.9175 19.462 24.2415 19.462C24.4095 19.462 24.5655 19.432 24.7095 19.372C24.8535 19.3 24.9735 19.198 25.0695 19.066C25.1775 18.934 25.2555 18.76 25.3035 18.544C25.3635 18.328 25.3935 18.076 25.3935 17.788V13H29.0295V22H25.7715L25.6815 20.2C25.4055 20.86 25.0095 21.358 24.4935 21.694C23.9775 22.018 23.3535 22.18 22.6215 22.18Z" fill="#6EE7B7"/>
</svg>
