<svg width="32" height="32" viewBox="0 0 32 32" fill="none" xmlns="http://www.w3.org/2000/svg">
<rect width="32" height="32" rx="8" fill="#FFFDF5"/>
<path d="M6.32 21.16C5.53067 21.16 4.784 21.0427 4.08 20.808C3.376 20.5733 2.77333 20.2267 2.272 19.768L3.568 18.056C3.856 18.344 4.224 18.5947 4.672 18.808C5.13067 19.0213 5.61067 19.128 6.112 19.128C6.368 19.128 6.58133 19.096 6.752 19.032C6.93333 18.968 7.024 18.856 7.024 18.696C7.024 18.5893 6.976 18.504 6.88 18.44C6.79467 18.3653 6.608 18.3013 6.32 18.248L5.488 18.088C4.4 17.8747 3.62667 17.5653 3.168 17.16C2.72 16.744 2.496 16.2 2.496 15.528C2.496 15.0907 2.62933 14.6693 2.896 14.264C3.17333 13.848 3.60533 13.5067 4.192 13.24C4.78933 12.9733 5.55733 12.84 6.496 12.84C7.31733 12.84 8.048 12.952 8.688 13.176C9.33867 13.3893 9.856 13.6987 10.24 14.104L8.976 15.768C8.688 15.4907 8.32533 15.272 7.888 15.112C7.45067 14.952 7.03467 14.872 6.64 14.872C6.43733 14.872 6.26667 14.888 6.128 14.92C5.98933 14.952 5.88267 15 5.808 15.064C5.744 15.1173 5.712 15.192 5.712 15.288C5.712 15.3947 5.77067 15.4907 5.888 15.576C6.016 15.6507 6.24533 15.72 6.576 15.784L7.856 16.008C8.69867 16.1573 9.312 16.4347 9.696 16.84C10.08 17.2453 10.272 17.7413 10.272 18.328C10.272 18.8507 10.1333 19.3253 9.856 19.752C9.57867 20.1787 9.14667 20.52 8.56 20.776C7.984 21.032 7.23733 21.16 6.32 21.16ZM12.9781 12.296C12.3381 12.296 11.8741 12.184 11.5861 11.96C11.3088 11.736 11.1701 11.3733 11.1701 10.872C11.1701 10.36 11.3088 9.992 11.5861 9.768C11.8741 9.544 12.3381 9.432 12.9781 9.432C13.6181 9.432 14.0768 9.544 14.3541 9.768C14.6421 9.992 14.7861 10.36 14.7861 10.872C14.7861 11.3733 14.6421 11.736 14.3541 11.96C14.0768 12.184 13.6181 12.296 12.9781 12.296ZM14.5941 13V21H11.3621V13H14.5941ZM16.159 21V13H19.071L19.151 14.648C19.3857 14.0613 19.7377 13.6133 20.207 13.304C20.6763 12.9947 21.2363 12.84 21.887 12.84C22.4843 12.84 22.991 12.9787 23.407 13.256C23.8337 13.5227 24.1377 13.9173 24.319 14.44C24.4897 14.088 24.703 13.7947 24.959 13.56C25.2257 13.3253 25.5297 13.1493 25.871 13.032C26.223 12.904 26.5963 12.84 26.991 12.84C27.5243 12.84 27.983 12.9467 28.367 13.16C28.7617 13.3627 29.0657 13.672 29.279 14.088C29.4923 14.4933 29.599 14.9947 29.599 15.592V21H26.367V16.392C26.367 15.9653 26.2977 15.672 26.159 15.512C26.0203 15.3413 25.823 15.256 25.567 15.256C25.3537 15.256 25.1617 15.3093 24.991 15.416C24.831 15.5227 24.7083 15.6933 24.623 15.928C24.5377 16.152 24.495 16.4347 24.495 16.776V21H21.263V16.392C21.263 15.9653 21.1937 15.672 21.055 15.512C20.9163 15.3413 20.719 15.256 20.463 15.256C20.2603 15.256 20.0737 15.3093 19.903 15.416C19.743 15.5227 19.615 15.6933 19.519 15.928C19.4337 16.152 19.391 16.44 19.391 16.792V21H16.159Z" fill="#028090"/>
</svg>
