<svg width="30" height="30" viewBox="0 0 30 30" fill="none" xmlns="http://www.w3.org/2000/svg">
<g clip-path="url(#clip0_682_5930)">
<path d="M15.8006 1.20434V7.65431C15.8012 7.82544 15.7367 7.99025 15.6205 8.11457L10.8849 13.1373C10.7811 13.2656 10.7037 13.4136 10.6573 13.5727C10.6109 13.7317 10.5964 13.8985 10.6147 14.0633C10.6831 14.6101 11.0561 15.5725 12.0055 15.6755C12.6793 15.7494 14.3107 15.7357 15.2007 15.722C15.2498 15.722 15.2979 15.7367 15.3388 15.7641C15.3798 15.7916 15.4119 15.8306 15.4311 15.8764C15.4503 15.9221 15.4558 15.9726 15.4468 16.0215C15.4379 16.0704 15.415 16.1155 15.3808 16.1513L9.5256 22.3069C9.12114 22.7352 8.00775 23.8417 6.98173 23.1554C6.30702 22.6997 5.99805 22.4354 5.99805 21.5085V12.8502C5.99805 12.1111 5.99805 10.6364 8.03297 8.61219C9.28419 7.36813 14.1134 2.41012 15.4556 1.06398C15.4836 1.03547 15.5192 1.01594 15.5581 1.00782C15.5969 0.999699 15.6373 1.00336 15.6741 1.01834C15.711 1.03332 15.7426 1.05896 15.7651 1.09204C15.7876 1.12512 15.7999 1.16419 15.8006 1.20434Z" fill="#EE751F"/>
<path d="M13.576 13.1027L19.9393 6.89239C19.9393 6.89239 20.7869 6.2061 21.7364 6.58342C22.6858 6.96074 22.9912 7.98971 22.9912 9.08795V16.3965C22.9912 16.3965 23.1948 18.695 21.703 20.2735C20.3068 21.7491 14.084 28.025 13.2733 28.8334C13.1882 28.9218 13.0768 28.9794 12.9562 28.9975C12.8085 29.0157 12.6445 28.9637 12.6445 28.642C12.6445 27.9904 12.6517 23.1053 12.6445 22.1528C12.6445 22.1009 12.6545 22.0494 12.6742 22.0014C12.6938 21.9534 12.7226 21.9098 12.7589 21.873L17.6278 16.9451C17.6278 16.9451 18.2719 16.1558 18.0692 15.3675C17.8665 14.5791 17.2891 14.1663 16.1694 14.1663C15.0497 14.1663 13.7958 14.2009 13.4571 14.2009C13.1184 14.2009 12.9535 13.7707 13.1868 13.4955C13.3066 13.3548 13.4366 13.2235 13.576 13.1027Z" fill="#EE751F"/>
</g>
<defs>
<clipPath id="clip0_682_5930">
<rect width="17" height="28" fill="white" transform="translate(6 1.00018)"/>
</clipPath>
</defs>
</svg>
