<svg width="32" height="32" viewBox="0 0 32 32" fill="none" xmlns="http://www.w3.org/2000/svg">
<rect width="32" height="32" rx="8" fill="#FFFDF5"/>
<path d="M2.784 24.36V13H5.712L5.872 16.232L5.504 15.848C5.55733 15.2613 5.70667 14.744 5.952 14.296C6.19733 13.848 6.52267 13.496 6.928 13.24C7.344 12.9733 7.824 12.84 8.368 12.84C9.02933 12.84 9.59467 13.0053 10.064 13.336C10.5333 13.656 10.8907 14.1253 11.136 14.744C11.392 15.352 11.52 16.0933 11.52 16.968C11.52 17.8427 11.392 18.5947 11.136 19.224C10.88 19.8533 10.512 20.3333 10.032 20.664C9.56267 20.9947 9.00267 21.16 8.352 21.16C7.59467 21.16 6.99733 20.9253 6.56 20.456C6.13333 19.976 5.856 19.3787 5.728 18.664L6.016 18.232V24.36H2.784ZM7.12 18.84C7.48267 18.84 7.76533 18.7067 7.968 18.44C8.17067 18.1627 8.272 17.6827 8.272 17C8.272 16.3173 8.17067 15.8373 7.968 15.56C7.76533 15.2827 7.488 15.144 7.136 15.144C6.912 15.144 6.71467 15.2133 6.544 15.352C6.37333 15.4907 6.24 15.6987 6.144 15.976C6.05867 16.2427 6.016 16.584 6.016 17C6.016 17.3947 6.05333 17.7307 6.128 18.008C6.21333 18.2853 6.34133 18.4933 6.512 18.632C6.68267 18.7707 6.88533 18.84 7.12 18.84ZM14.4313 12.296C13.7913 12.296 13.3273 12.184 13.0393 11.96C12.7619 11.736 12.6233 11.3733 12.6233 10.872C12.6233 10.36 12.7619 9.992 13.0393 9.768C13.3273 9.544 13.7913 9.432 14.4313 9.432C15.0713 9.432 15.5299 9.544 15.8073 9.768C16.0953 9.992 16.2393 10.36 16.2393 10.872C16.2393 11.3733 16.0953 11.736 15.8073 11.96C15.5299 12.184 15.0713 12.296 14.4313 12.296ZM16.0473 13V21.32C16.0473 22.056 15.9246 22.6533 15.6793 23.112C15.4339 23.5707 15.0659 23.9067 14.5753 24.12C14.0846 24.3333 13.4659 24.44 12.7193 24.44C12.2499 24.44 11.8286 24.3973 11.4552 24.312C11.0819 24.2267 10.7459 24.104 10.4472 23.944L10.8632 21.976C10.9699 22.0507 11.1032 22.1093 11.2632 22.152C11.4126 22.1947 11.5832 22.216 11.7752 22.216C12.0953 22.216 12.3459 22.1253 12.5273 21.944C12.7193 21.7733 12.8153 21.4693 12.8153 21.032V13H16.0473ZM27.7561 10.44V21H24.1721L21.2921 15.768L20.6201 14.344H20.5881L20.6521 16.424V21H17.8041V10.44H21.3721L24.2521 15.672L24.9401 17.096H24.9561L24.8921 15.016V10.44H27.7561Z" fill="#6EE7B7"/>
</svg>
