<svg width="30" height="30" viewBox="0 0 30 30" fill="none" xmlns="http://www.w3.org/2000/svg">
<path d="M4.55853 3.12982L3.83251 2.40514C3.77932 3.0697 3.26309 3.61136 2.58582 3.71327L3.32943 4.3866L30 28.5692L4.55853 3.12982ZM6.31857 10.1384V24.5749C6.84449 24.0367 7.70693 23.9809 8.30155 24.4465V14.7603L24.3722 30H27.1413L6.31857 10.1384ZM25.0381 6.80315C24.6553 6.80425 24.2871 6.66049 24.0114 6.40229V16.1726L8.23555 0.934387H5.18041L25.9959 20.7532V6.45792C25.7294 6.68089 25.3896 6.8034 25.0381 6.80315Z" fill="url(#paint0_linear_1331_21517)"/>
<path d="M2.36146 4.4577e-07C1.40683 -0.000576167 0.545862 0.558288 0.180129 1.41593C-0.185605 2.27358 0.0159379 3.26106 0.690756 3.9178C1.36557 4.57455 2.38073 4.77119 3.26276 4.416C4.14478 4.06082 4.71992 3.22378 4.71992 2.29529C4.71911 1.02852 3.6639 0.00157428 2.36146 4.4577e-07ZM2.58587 3.70899C2.51165 3.72047 2.43661 3.72619 2.36146 3.72611C1.76381 3.72668 1.22472 3.3769 0.995733 2.83998C0.76675 2.30306 0.89302 1.68484 1.31562 1.27382C1.73822 0.86279 2.37384 0.739978 2.92588 0.96269C3.47792 1.1854 3.83756 1.70974 3.83696 2.29101C3.83696 2.3281 3.83696 2.36519 3.83696 2.40086C3.78334 3.06677 3.26487 3.60888 2.58587 3.70899Z" fill="url(#paint1_linear_1331_21517)"/>
<path d="M25.0382 3.07275C23.7581 3.1038 22.7371 4.12197 22.7371 5.36733C22.7371 6.6127 23.7581 7.63087 25.0382 7.66192C25.3683 7.66279 25.6948 7.59519 25.9959 7.46363C27.0149 7.02424 27.5784 5.95104 27.3471 4.89057C27.1158 3.8301 26.1528 3.0719 25.0382 3.07275ZM25.9959 6.45792C25.4687 6.89544 24.6995 6.91717 24.1471 6.51013C23.5947 6.10309 23.408 5.37699 23.6984 4.76497C23.9888 4.15294 24.6779 3.81994 25.3548 3.96459C26.0317 4.10925 26.5138 4.69258 26.5137 5.36662C26.5147 5.7868 26.3253 6.18607 25.9959 6.45792Z" fill="url(#paint2_linear_1331_21517)"/>
<path d="M8.30458 23.4551C7.34577 23.0605 6.23438 23.3236 5.56931 24.1027C4.90424 24.8817 4.84264 25.9926 5.41771 26.8368C5.99279 27.6809 7.06864 28.0587 8.06552 27.7667C9.0624 27.4747 9.74476 26.5818 9.7449 25.5692C9.74854 24.646 9.18008 23.8116 8.30458 23.4551ZM7.38056 27.0043C6.56585 27.0035 5.90598 26.3606 5.90652 25.5682C5.90706 24.7759 6.56781 24.1338 7.38251 24.1341C8.19722 24.1344 8.85753 24.7768 8.85753 25.5692C8.85672 26.362 8.19569 27.0043 7.38056 27.0043Z" fill="url(#paint3_linear_1331_21517)"/>
<defs>
<linearGradient id="paint0_linear_1331_21517" x1="2.58582" y1="15.4679" x2="30" y2="15.4679" gradientUnits="userSpaceOnUse">
<stop offset="0.21" stop-color="#2AB7AF"/>
<stop offset="0.8" stop-color="#DF6C00"/>
</linearGradient>
<linearGradient id="paint1_linear_1331_21517" x1="0.0543366" y1="-0.259245" x2="25.3023" y2="29.2931" gradientUnits="userSpaceOnUse">
<stop offset="0.21" stop-color="#2AB7AF"/>
<stop offset="0.8" stop-color="#DF6C00"/>
</linearGradient>
<linearGradient id="paint2_linear_1331_21517" x1="11.917" y1="-9.5163" x2="37.5127" y2="20.442" gradientUnits="userSpaceOnUse">
<stop offset="0.21" stop-color="#2AB7AF"/>
<stop offset="0.8" stop-color="#DF6C00"/>
</linearGradient>
<linearGradient id="paint3_linear_1331_21517" x1="-8.73415" y1="7.72043" x2="16.5142" y2="37.2706" gradientUnits="userSpaceOnUse">
<stop offset="0.21" stop-color="#2AB7AF"/>
<stop offset="0.8" stop-color="#DF6C00"/>
</linearGradient>
</defs>
</svg>
