<svg width="30" height="30" viewBox="0 0 30 30" fill="none" xmlns="http://www.w3.org/2000/svg">
<path d="M13.1385 26.5576C12.8873 26.5112 12.6387 26.4542 12.3937 26.3883C12.3029 26.3633 12.2129 26.3384 12.1238 26.3108C12.0579 26.2912 11.9928 26.2707 11.9269 26.2493C11.8806 26.2341 11.8333 26.2181 11.787 26.2021C11.7149 26.1771 11.6436 26.1522 11.5723 26.1255C11.4957 26.0969 11.42 26.0684 11.3451 26.0382L11.1919 23.2282L11.5215 21.6442L13.1189 26.4988L13.1385 26.5576Z" fill="url(#paint0_linear_1331_21521)"/>
<path d="M18.6348 23.2282L18.4717 26.022C18.3951 26.0532 18.3185 26.0826 18.2419 26.112C18.1652 26.1414 18.0877 26.169 18.0102 26.1958C17.9719 26.2091 17.9327 26.2225 17.8935 26.235C17.8276 26.2573 17.7608 26.2777 17.6939 26.2982C17.3548 26.4022 17.01 26.4872 16.6614 26.553L16.6667 26.5352L16.6685 26.5281L18.2855 21.5711L18.6348 23.2282Z" fill="url(#paint1_linear_1331_21521)"/>
<path d="M17.0092 25.2476L16.145 26.6357L16.1014 26.641C16.0853 26.6428 16.0693 26.6455 16.0532 26.6473C16.0399 26.649 16.0256 26.6508 16.0123 26.6517L15.9223 26.6624C15.8581 26.6695 15.7949 26.6758 15.7307 26.6811C15.4575 26.7052 15.1819 26.7176 14.9039 26.7185H14.8879C14.6126 26.7185 14.3383 26.7069 14.0665 26.6829C14.0068 26.6775 13.9471 26.6722 13.8874 26.666C13.8607 26.6633 13.8331 26.6606 13.8064 26.6571L13.7627 26.6517L13.7208 26.6464L13.6745 26.641L12.8121 25.2467L12.6215 21.8426L13.5293 24.3077L14.6091 24.5028L15.2933 24.501L16.3178 24.2997L17.0974 21.9344L17.0092 25.2476Z" fill="url(#paint2_linear_1331_21521)"/>
<path d="M16.1582 15.6399L17.5374 16.4337L17.5409 17.346L16.1582 15.6399Z" fill="url(#paint3_linear_1331_21521)"/>
<path d="M20.9874 16.0336L21.9425 15.8002L21.4917 17.3219L20.9874 16.0336Z" fill="url(#paint4_linear_1331_21521)"/>
<path d="M17.5409 17.3459L17.6816 18.8275L18.3569 17.844L19.1489 16.5931L17.5409 17.3459Z" fill="url(#paint5_linear_1331_21521)"/>
<path d="M20.9876 16.0337L19.8543 16.333L19.1487 16.5932L18.3567 17.844L17.6814 18.8276L18.6142 18.8757L20.3675 18.5461L21.4918 17.322L20.9876 16.0337Z" fill="url(#paint6_linear_1331_21521)"/>
<path d="M17.0107 19.3921L17.6816 18.8273L17.8767 19.393L17.0107 19.3921Z" fill="url(#paint7_linear_1331_21521)"/>
<path d="M17.6814 18.8273L18.6142 18.8753L17.8765 19.393L17.6814 18.8273Z" fill="url(#paint8_linear_1331_21521)"/>
<path d="M17.0102 19.3925L17.8762 19.3934L16.9487 20.0651L17.0102 19.3925Z" fill="url(#paint9_linear_1331_21521)"/>
<path d="M16.1582 15.6399L17.5409 17.346L16.6901 18.1799L16.1582 15.6399Z" fill="url(#paint10_linear_1331_21521)"/>
<path d="M17.0102 19.3926L17.681 18.8278L16.6895 18.1801L17.0102 19.3926Z" fill="url(#paint11_linear_1331_21521)"/>
<path d="M17.5403 17.3462L17.681 18.8278L16.6895 18.1801L17.5403 17.3462Z" fill="url(#paint12_linear_1331_21521)"/>
<path d="M16.69 18.1801L15.865 20.6506L16.9493 20.0652L17.0107 19.3926L16.69 18.1801Z" fill="url(#paint13_linear_1331_21521)"/>
<path d="M16.7595 20.8913L16.9493 20.0655L15.865 20.6508L16.3363 21.98L17.0374 22.1359L16.7595 20.8913Z" fill="url(#paint14_linear_1331_21521)"/>
<path d="M16.1608 22.9187L15.4686 23.9361L15.2939 24.501L16.3185 24.2996L16.1608 22.9187Z" fill="url(#paint15_linear_1331_21521)"/>
<path d="M12.2559 17.3548L12.2488 16.4425L13.619 15.6434L12.2559 17.3548Z" fill="url(#paint16_linear_1331_21521)"/>
<path d="M8.29215 17.3447L7.81909 15.8212L8.78214 16.052L8.29215 17.3447Z" fill="url(#paint17_linear_1331_21521)"/>
<path d="M12.2557 17.3549L12.1061 18.8383L11.4441 17.8556L10.6343 16.6066L12.2557 17.3549Z" fill="url(#paint18_linear_1331_21521)"/>
<path d="M8.78246 16.0518L9.92373 16.3485L10.6346 16.6069L11.4445 17.8559L12.1064 18.8386L11.1995 18.8903L9.43548 18.5669L8.29248 17.3446L8.78246 16.0518Z" fill="url(#paint19_linear_1331_21521)"/>
<path d="M11.9438 19.4064L12.106 18.8389L12.8116 19.4011L11.9438 19.4064Z" fill="url(#paint20_linear_1331_21521)"/>
<path d="M11.9438 19.4064L11.199 18.8906L12.1059 18.8389L11.9438 19.4064Z" fill="url(#paint21_linear_1331_21521)"/>
<path d="M12.882 20.0742L11.9438 19.4061L12.8116 19.4007L12.882 20.0742Z" fill="url(#paint22_linear_1331_21521)"/>
<path d="M13.1181 18.1869L12.2557 17.3548L13.6188 15.6434L13.1181 18.1869Z" fill="url(#paint23_linear_1331_21521)"/>
<path d="M13.1179 18.1871L12.1058 18.8383L12.8114 19.4005L13.1179 18.1871Z" fill="url(#paint24_linear_1331_21521)"/>
<path d="M13.1179 18.1877L12.1058 18.8389L12.2555 17.3556L13.1179 18.1877Z" fill="url(#paint25_linear_1331_21521)"/>
<path d="M13.1175 18.1871L13.9185 20.6424L12.8814 20.074L12.811 19.4005L13.1175 18.1871Z" fill="url(#paint26_linear_1331_21521)"/>
<path d="M13.7061 22.9261L13.519 21.9871L14.9356 22.0985L13.7061 22.9261Z" fill="url(#paint27_linear_1331_21521)"/>
<path d="M12.882 20.0742L13.1092 20.8564L12.7128 22.1705L13.519 21.987L13.9191 20.6426L12.882 20.0742Z" fill="url(#paint28_linear_1331_21521)"/>
<path d="M13.7061 22.9263L14.376 23.9393L14.6094 24.5041L13.5297 24.3081L13.7061 22.9263Z" fill="url(#paint29_linear_1331_21521)"/>
<path d="M15.4686 23.9363L14.9296 23.8819V23.8801L14.9224 23.881L14.9153 23.8801V23.8819L14.3763 23.9389L14.6097 24.5038L15.294 24.5011L15.4686 23.9363Z" fill="url(#paint30_linear_1331_21521)"/>
<path d="M16.1608 22.9188L14.9358 22.1081V22.0983L14.9287 22.1027L14.9215 22.0983V22.1081L13.7063 22.926L14.3763 23.9389L14.9224 23.881L15.4685 23.9363L16.1608 22.9188Z" fill="url(#paint31_linear_1331_21521)"/>
<path d="M15.865 20.6506L16.6899 18.1801L14.9054 18.2905L13.1183 18.1872L13.9192 20.6425L13.5192 21.9869L14.9215 22.0974V22.0983L14.9286 22.0974L14.9357 22.0983V22.0974L16.3363 21.9798L15.865 20.6506Z" fill="url(#paint32_linear_1331_21521)"/>
<path d="M14.9126 18.2903L16.6899 18.1799L16.1581 15.6399L14.8841 15.9366L13.619 15.6435L13.1183 18.187L14.8983 18.2903V18.2912L14.9054 18.2903L14.9126 18.2912V18.2903Z" fill="url(#paint33_linear_1331_21521)"/>
<path d="M16.336 21.9795L16.1605 22.9185L16.3182 24.2994L17.0372 22.1354L16.336 21.9795Z" fill="url(#paint34_linear_1331_21521)"/>
<path d="M13.519 21.9871L12.7128 22.1707L13.5297 24.3079L13.7061 22.9261L13.519 21.9871Z" fill="url(#paint35_linear_1331_21521)"/>
<path d="M13.519 21.987L12.7127 22.1705L11.9438 19.406L12.882 20.0742L13.4958 20.8599L13.519 21.987Z" fill="url(#paint36_linear_1331_21521)"/>
<path d="M16.3361 21.9794L17.0372 22.1353L17.8765 19.3931L16.949 20.0648L16.3601 20.97L16.3361 21.9794Z" fill="url(#paint37_linear_1331_21521)"/>
<path d="M14.9211 22.098L16.3359 21.9795L16.1604 22.9185L14.9211 22.098Z" fill="url(#paint38_linear_1331_21521)"/>
<path d="M14.3372 22.4876H15.5978L14.9216 22.0983L14.3372 22.4876Z" fill="url(#paint39_linear_1331_21521)"/>
<path d="M24.7788 13.965L24.2433 14.1726L24.1115 14.047L24.1533 13.7209L26.5294 11.0847L28.37 7.32241L28.0137 7.23065L26.4848 10.209L26.5276 9.735L27.0595 6.36469L26.6639 3.37569L26.3343 3.28125L26.4768 5.88805L25.5378 10.3355L24.3306 11.9676L24.1926 10.8745L24.9739 8.93227L25.136 6.28985L24.8607 6.27827L24.6612 8.18034L23.9306 9.972L23.6357 10.2455L23.4424 9.91584L23.4085 7.99861L23.1199 8.02622L23.0406 10.4264L23.1208 12.446L22.2494 13.197L20.5941 13.9383L19.3852 14.088L20.7251 12.315L20.6378 11.3119L20.5167 11.3253L20.4186 11.769L18.5157 14.2947L17.5125 14.5637L16.1646 15.6524L17.5365 16.4338L18.1549 15.6934L18.7954 15.517L20.1585 15.2738L20.9737 15.1286L22.4766 15.0404L24.1685 14.9415L26.9205 12.9039L26.7031 12.5672L24.7788 13.965Z" fill="url(#paint40_linear_1331_21521)"/>
<path d="M11.2276 14.3051L9.31575 11.7838L9.21506 11.3419L9.09478 11.3285L9.01463 12.3281L10.3599 14.0975L9.15539 13.9469L7.50633 13.2066L6.63591 12.4573L6.70181 10.4456L6.60736 8.05533L6.32048 8.02861L6.3 9.93783L6.11114 10.2657L5.81625 9.99394L5.08036 8.21212L4.87011 6.31805L4.59749 6.33052L4.77567 8.95959L5.56323 10.892L5.43227 11.9807L4.22687 10.3557L3.26825 5.93407L3.3912 3.34152L3.0669 3.43685L2.69451 6.40982L3.2433 9.75965L3.28785 10.2309L1.75816 7.27221L1.40625 7.36398L3.25043 11.1014L5.61936 13.726L5.66302 14.0503L5.53383 14.175L5.00196 13.9683L3.08739 12.5758L2.87536 12.9108L5.61312 14.9403L7.29248 15.0427L8.78564 15.1327L9.59728 15.2797L10.9568 15.5247L11.5965 15.702L12.2486 16.4423L13.6188 15.6432L12.229 14.575L11.2276 14.3051Z" fill="url(#paint41_linear_1331_21521)"/>
<path d="M13.7213 26.6473L13.675 26.6419C13.553 26.6259 13.4318 26.608 13.3115 26.5884C13.2937 26.5858 13.2759 26.5822 13.2581 26.5795L13.1396 26.5582C12.8883 26.5118 12.6398 26.4548 12.3948 26.3889C12.3039 26.3639 12.2139 26.339 12.1248 26.3114C12.0589 26.2918 11.9939 26.2713 11.928 26.2499L11.6536 24.8797L11.5226 21.6457L11.9449 19.4077L12.7137 22.1722L12.8135 25.2494L13.7213 26.6473Z" fill="url(#paint42_linear_1331_21521)"/>
<path d="M18.2993 21.6436L18.1683 24.8776L18.163 24.8829L17.8922 26.2335C17.8262 26.2558 17.7594 26.2763 17.6926 26.2967C17.3534 26.4007 17.0087 26.4858 16.66 26.5515C16.6199 26.5587 16.5798 26.5667 16.5397 26.5738L16.5112 26.5792C16.5094 26.5792 16.5085 26.5801 16.5068 26.5801C16.3865 26.6005 16.2654 26.6193 16.1433 26.6353L16.0996 26.6407L17.0066 25.2464L17.0342 22.1344L17.8743 19.3931L18.2841 21.5714L18.2993 21.6436Z" fill="url(#paint43_linear_1331_21521)"/>
<defs>
<linearGradient id="paint0_linear_1331_21521" x1="12.1652" y1="13.3396" x2="12.1652" y2="28.5505" gradientUnits="userSpaceOnUse">
<stop stop-color="#00E0A4"/>
<stop offset="1" stop-color="#00182E"/>
</linearGradient>
<linearGradient id="paint1_linear_1331_21521" x1="4771.97" y1="-9764.96" x2="4771.97" y2="-1258.99" gradientUnits="userSpaceOnUse">
<stop stop-color="#00E0A4"/>
<stop offset="1" stop-color="#00182E"/>
</linearGradient>
<linearGradient id="paint2_linear_1331_21521" x1="14.8594" y1="29.2713" x2="14.8594" y2="18.4145" gradientUnits="userSpaceOnUse">
<stop stop-color="#00E0B5"/>
<stop offset="1" stop-color="#000B08"/>
</linearGradient>
<linearGradient id="paint3_linear_1331_21521" x1="16.5636" y1="15.4757" x2="17.7873" y2="16.8948" gradientUnits="userSpaceOnUse">
<stop stop-color="#00917B"/>
<stop offset="1" stop-color="#00BD86"/>
</linearGradient>
<linearGradient id="paint4_linear_1331_21521" x1="21.3653" y1="15.4417" x2="22.1604" y2="16.0159" gradientUnits="userSpaceOnUse">
<stop stop-color="#004F75"/>
<stop offset="1" stop-color="#006186"/>
</linearGradient>
<linearGradient id="paint5_linear_1331_21521" x1="17.8003" y1="18.3855" x2="19.8688" y2="16.6965" gradientUnits="userSpaceOnUse">
<stop stop-color="#00E0A3"/>
<stop offset="1" stop-color="#00298F"/>
</linearGradient>
<linearGradient id="paint6_linear_1331_21521" x1="18.5985" y1="18.0706" x2="22.6425" y2="14.7686" gradientUnits="userSpaceOnUse">
<stop stop-color="#00E094"/>
<stop offset="1" stop-color="#000051"/>
</linearGradient>
<linearGradient id="paint7_linear_1331_21521" x1="17.9378" y1="19.0909" x2="17.1168" y2="19.3237" gradientUnits="userSpaceOnUse">
<stop stop-color="#005773"/>
<stop offset="1" stop-color="#003B1B"/>
</linearGradient>
<linearGradient id="paint8_linear_1331_21521" x1="23569.4" y1="-6778.08" x2="23581.9" y2="-6748.74" gradientUnits="userSpaceOnUse">
<stop stop-color="#00E094"/>
<stop offset="1" stop-color="#000051"/>
</linearGradient>
<linearGradient id="paint9_linear_1331_21521" x1="17.1256" y1="19.5628" x2="17.5966" y2="20.207" gradientUnits="userSpaceOnUse">
<stop stop-color="#000700"/>
<stop offset="1" stop-color="#002B16"/>
</linearGradient>
<linearGradient id="paint10_linear_1331_21521" x1="16.6402" y1="15.6954" x2="17.7855" y2="16.5503" gradientUnits="userSpaceOnUse">
<stop stop-color="#00ABB5"/>
<stop offset="1" stop-color="#00AD95"/>
</linearGradient>
<linearGradient id="paint11_linear_1331_21521" x1="16.874" y1="18.2105" x2="17.8204" y2="19.2037" gradientUnits="userSpaceOnUse">
<stop stop-color="#00C77A"/>
<stop offset="1" stop-color="#00C797"/>
</linearGradient>
<linearGradient id="paint12_linear_1331_21521" x1="16.9812" y1="17.2094" x2="17.9334" y2="18.2087" gradientUnits="userSpaceOnUse">
<stop stop-color="#00D4B0"/>
<stop offset="1" stop-color="#00A1B5"/>
</linearGradient>
<linearGradient id="paint13_linear_1331_21521" x1="15.8241" y1="21.8056" x2="17.8535" y2="20.1486" gradientUnits="userSpaceOnUse">
<stop stop-color="#00E088"/>
<stop offset="1" stop-color="#00E0B5"/>
</linearGradient>
<linearGradient id="paint14_linear_1331_21521" x1="16.1671" y1="22.2113" x2="17.6143" y2="20.8753" gradientUnits="userSpaceOnUse">
<stop stop-color="#00E094"/>
<stop offset="1" stop-color="#00E0B5"/>
</linearGradient>
<linearGradient id="paint15_linear_1331_21521" x1="877.67" y1="-439.015" x2="1046.5" y2="-525.617" gradientUnits="userSpaceOnUse">
<stop stop-color="#00C77A"/>
<stop offset="1" stop-color="#00C797"/>
</linearGradient>
<linearGradient id="paint16_linear_1331_21521" x1="-45325.5" y1="-113102" x2="-45543" y2="-112897" gradientUnits="userSpaceOnUse">
<stop stop-color="#00917B"/>
<stop offset="1" stop-color="#00BD86"/>
</linearGradient>
<linearGradient id="paint17_linear_1331_21521" x1="-15202.9" y1="-103390" x2="-15291.3" y2="-103346" gradientUnits="userSpaceOnUse">
<stop stop-color="#004F75"/>
<stop offset="1" stop-color="#006186"/>
</linearGradient>
<linearGradient id="paint18_linear_1331_21521" x1="-5968.61" y1="-2533.64" x2="-6405.65" y2="-2784.87" gradientUnits="userSpaceOnUse">
<stop stop-color="#00E0A3"/>
<stop offset="1" stop-color="#00298F"/>
</linearGradient>
<linearGradient id="paint19_linear_1331_21521" x1="-26757.1" y1="-1017.45" x2="-27942.9" y2="-2299.4" gradientUnits="userSpaceOnUse">
<stop stop-color="#00E094"/>
<stop offset="1" stop-color="#000051"/>
</linearGradient>
<linearGradient id="paint20_linear_1331_21521" x1="1477.07" y1="-280.896" x2="1527.92" y2="-245.827" gradientUnits="userSpaceOnUse">
<stop stop-color="#005773"/>
<stop offset="1" stop-color="#003B1B"/>
</linearGradient>
<linearGradient id="paint21_linear_1331_21521" x1="-27135.2" y1="-7151.42" x2="-27153.2" y2="-7110.07" gradientUnits="userSpaceOnUse">
<stop stop-color="#00E094"/>
<stop offset="1" stop-color="#000051"/>
</linearGradient>
<linearGradient id="paint22_linear_1331_21521" x1="-26076.8" y1="-10271.3" x2="-26104" y2="-10217.3" gradientUnits="userSpaceOnUse">
<stop stop-color="#000700"/>
<stop offset="1" stop-color="#002B16"/>
</linearGradient>
<linearGradient id="paint23_linear_1331_21521" x1="-25071.7" y1="-271680" x2="-25234.8" y2="-271608" gradientUnits="userSpaceOnUse">
<stop stop-color="#00ABB5"/>
<stop offset="1" stop-color="#00AD95"/>
</linearGradient>
<linearGradient id="paint24_linear_1331_21521" x1="-25405.5" y1="-59277.2" x2="-25530" y2="-59166.2" gradientUnits="userSpaceOnUse">
<stop stop-color="#00C77A"/>
<stop offset="1" stop-color="#00C797"/>
</linearGradient>
<linearGradient id="paint25_linear_1331_21521" x1="-17693.1" y1="-73376.2" x2="-17821.7" y2="-73281.2" gradientUnits="userSpaceOnUse">
<stop stop-color="#00D4B0"/>
<stop offset="1" stop-color="#00A1B5"/>
</linearGradient>
<linearGradient id="paint26_linear_1331_21521" x1="-1486.33" y1="-2303.52" x2="-1694.59" y2="-2371.86" gradientUnits="userSpaceOnUse">
<stop stop-color="#00E088"/>
<stop offset="1" stop-color="#00E0B5"/>
</linearGradient>
<linearGradient id="paint27_linear_1331_21521" x1="-57844.2" y1="-14121.9" x2="-57873" y2="-14035.6" gradientUnits="userSpaceOnUse">
<stop stop-color="#00E094"/>
<stop offset="1" stop-color="#00E0B5"/>
</linearGradient>
<linearGradient id="paint28_linear_1331_21521" x1="689.883" y1="-1794.7" x2="934.336" y2="-1935.37" gradientUnits="userSpaceOnUse">
<stop stop-color="#00E094"/>
<stop offset="1" stop-color="#00E0B5"/>
</linearGradient>
<linearGradient id="paint29_linear_1331_21521" x1="-3338.69" y1="-627.009" x2="-3529.41" y2="-729.585" gradientUnits="userSpaceOnUse">
<stop stop-color="#00C77A"/>
<stop offset="1" stop-color="#00C797"/>
</linearGradient>
<linearGradient id="paint30_linear_1331_21521" x1="2300.07" y1="-117.153" x2="2321.99" y2="-155.549" gradientUnits="userSpaceOnUse">
<stop stop-color="#00C77A"/>
<stop offset="1" stop-color="#00C797"/>
</linearGradient>
<linearGradient id="paint31_linear_1331_21521" x1="16.0824" y1="23.0186" x2="13.8186" y2="23.0186" gradientUnits="userSpaceOnUse">
<stop stop-color="#004D45"/>
<stop offset="0.11" stop-color="#003630"/>
<stop offset="0.24" stop-color="#00221E"/>
<stop offset="0.37" stop-color="#001613"/>
<stop offset="0.5" stop-color="#00120F"/>
<stop offset="0.67" stop-color="#001512"/>
<stop offset="0.78" stop-color="#001E1A"/>
<stop offset="0.88" stop-color="#002D28"/>
<stop offset="0.97" stop-color="#00423B"/>
<stop offset="1" stop-color="#004D45"/>
</linearGradient>
<linearGradient id="paint32_linear_1331_21521" x1="14.9041" y1="21.9554" x2="14.9041" y2="18.2531" gradientUnits="userSpaceOnUse">
<stop stop-color="#00C584"/>
<stop offset="1" stop-color="#00E0A9"/>
</linearGradient>
<linearGradient id="paint33_linear_1331_21521" x1="14.8885" y1="17.8521" x2="14.9714" y2="15.7797" gradientUnits="userSpaceOnUse">
<stop stop-color="#00C7B5"/>
<stop offset="1" stop-color="#00ABB5"/>
</linearGradient>
<linearGradient id="paint34_linear_1331_21521" x1="16.5989" y1="24.3886" x2="16.5989" y2="21.8493" gradientUnits="userSpaceOnUse">
<stop stop-color="#007F9B"/>
<stop offset="1" stop-color="#00C693"/>
</linearGradient>
<linearGradient id="paint35_linear_1331_21521" x1="1911.58" y1="-1700.27" x2="1911.58" y2="-2325.62" gradientUnits="userSpaceOnUse">
<stop stop-color="#007F9B"/>
<stop offset="1" stop-color="#00C693"/>
</linearGradient>
<linearGradient id="paint36_linear_1331_21521" x1="13.3339" y1="22.5663" x2="11.0094" y2="20.6913" gradientUnits="userSpaceOnUse">
<stop stop-color="#00C696"/>
<stop offset="1" stop-color="#00959B"/>
</linearGradient>
<linearGradient id="paint37_linear_1331_21521" x1="1047.67" y1="-1614.62" x2="1464.78" y2="-1796.48" gradientUnits="userSpaceOnUse">
<stop stop-color="#00C696"/>
<stop offset="1" stop-color="#00959B"/>
</linearGradient>
<linearGradient id="paint38_linear_1331_21521" x1="51160.3" y1="-14388.3" x2="51189.8" y2="-14301.6" gradientUnits="userSpaceOnUse">
<stop stop-color="#00E094"/>
<stop offset="1" stop-color="#00E0B5"/>
</linearGradient>
<linearGradient id="paint39_linear_1331_21521" x1="2582.97" y1="-87.1325" x2="2583.59" y2="-81.9648" gradientUnits="userSpaceOnUse">
<stop stop-color="#00E094"/>
<stop offset="1" stop-color="#00E0B5"/>
</linearGradient>
<linearGradient id="paint40_linear_1331_21521" x1="35752.9" y1="-20966.3" x2="35752.9" y2="-47253.7" gradientUnits="userSpaceOnUse">
<stop stop-color="#00E094"/>
<stop offset="1" stop-color="#000051"/>
</linearGradient>
<linearGradient id="paint41_linear_1331_21521" x1="15532.5" y1="-20883.8" x2="15532.5" y2="-47067.7" gradientUnits="userSpaceOnUse">
<stop stop-color="#00E094"/>
<stop offset="1" stop-color="#000051"/>
</linearGradient>
<linearGradient id="paint42_linear_1331_21521" x1="12.622" y1="27.3508" x2="12.622" y2="19.6883" gradientUnits="userSpaceOnUse">
<stop stop-color="#00E0AB"/>
<stop offset="1" stop-color="#00182E"/>
</linearGradient>
<linearGradient id="paint43_linear_1331_21521" x1="5206.08" y1="-2823.24" x2="5206.08" y2="-9062.02" gradientUnits="userSpaceOnUse">
<stop stop-color="#00E0AB"/>
<stop offset="1" stop-color="#00182E"/>
</linearGradient>
</defs>
</svg>
