<svg width="199" height="29" viewBox="0 0 199 29" fill="none" xmlns="http://www.w3.org/2000/svg">
<path d="M1.34 28.7C1.12 28.7 0.93 28.62 0.77 28.46C0.63 28.32 0.56 28.14 0.56 27.92V8.18C0.56 7.96 0.63 7.78 0.77 7.64C0.93 7.48 1.12 7.4 1.34 7.4H5.57C5.79 7.4 5.97 7.48 6.11 7.64C6.27 7.78 6.35 7.96 6.35 8.18V9.17C6.83 8.57 7.44 8.08 8.18 7.7C8.92 7.3 9.83 7.1 10.91 7.1C11.85 7.1 12.69 7.24 13.43 7.52C14.19 7.8 14.85 8.23 15.41 8.81C15.97 9.37 16.41 10.09 16.73 10.97C17.05 11.85 17.24 12.88 17.3 14.06C17.32 14.48 17.33 14.86 17.33 15.2C17.33 15.54 17.32 15.93 17.3 16.37C17.26 17.49 17.08 18.48 16.76 19.34C16.44 20.2 16 20.93 15.44 21.53C14.88 22.11 14.22 22.55 13.46 22.85C12.7 23.15 11.85 23.3 10.91 23.3C9.99 23.3 9.18 23.15 8.48 22.85C7.78 22.53 7.2 22.04 6.74 21.38V27.92C6.74 28.14 6.66 28.32 6.5 28.46C6.34 28.62 6.16 28.7 5.96 28.7H1.34ZM8.87 18.62C9.39 18.62 9.79 18.52 10.07 18.32C10.37 18.1 10.58 17.81 10.7 17.45C10.84 17.07 10.93 16.64 10.97 16.16C11.03 15.52 11.03 14.88 10.97 14.24C10.93 13.76 10.84 13.34 10.7 12.98C10.58 12.6 10.37 12.31 10.07 12.11C9.79 11.89 9.39 11.78 8.87 11.78C8.35 11.78 7.93 11.89 7.61 12.11C7.31 12.33 7.09 12.62 6.95 12.98C6.83 13.34 6.76 13.74 6.74 14.18C6.72 14.6 6.71 14.98 6.71 15.32C6.71 15.64 6.72 16.01 6.74 16.43C6.76 16.85 6.84 17.22 6.98 17.54C7.14 17.86 7.37 18.12 7.67 18.32C7.97 18.52 8.37 18.62 8.87 18.62ZM20.7345 23C20.5145 23 20.3245 22.93 20.1645 22.79C20.0245 22.63 19.9545 22.44 19.9545 22.22V8.18C19.9545 7.96 20.0245 7.78 20.1645 7.64C20.3245 7.48 20.5145 7.4 20.7345 7.4H25.0845C25.3045 7.4 25.4845 7.48 25.6245 7.64C25.7845 7.78 25.8645 7.96 25.8645 8.18V9.29C26.4645 8.71 27.1445 8.25 27.9045 7.91C28.6845 7.57 29.5345 7.4 30.4545 7.4H31.8045C32.0245 7.4 32.2145 7.48 32.3745 7.64C32.5345 7.78 32.6145 7.96 32.6145 8.18V12.05C32.6145 12.27 32.5345 12.46 32.3745 12.62C32.2145 12.78 32.0245 12.86 31.8045 12.86H28.4445C27.7245 12.86 27.1745 13.05 26.7945 13.43C26.4145 13.79 26.2245 14.33 26.2245 15.05V22.22C26.2245 22.44 26.1445 22.63 25.9845 22.79C25.8445 22.93 25.6645 23 25.4445 23H20.7345ZM42.3158 23.3C40.5558 23.3 39.0658 23.04 37.8458 22.52C36.6458 22 35.7258 21.24 35.0858 20.24C34.4458 19.22 34.0858 18 34.0058 16.58C33.9858 16.16 33.9758 15.7 33.9758 15.2C33.9758 14.7 33.9858 14.24 34.0058 13.82C34.0858 12.38 34.4658 11.16 35.1458 10.16C35.8258 9.16 36.7658 8.4 37.9658 7.88C39.1858 7.36 40.6358 7.1 42.3158 7.1C43.9958 7.1 45.4358 7.36 46.6358 7.88C47.8558 8.4 48.8058 9.16 49.4858 10.16C50.1658 11.16 50.5458 12.38 50.6258 13.82C50.6658 14.24 50.6858 14.7 50.6858 15.2C50.6858 15.7 50.6658 16.16 50.6258 16.58C50.5458 18 50.1858 19.22 49.5458 20.24C48.9058 21.24 47.9758 22 46.7558 22.52C45.5558 23.04 44.0758 23.3 42.3158 23.3ZM42.3158 19.07C43.0558 19.07 43.5658 18.85 43.8458 18.41C44.1258 17.97 44.2858 17.31 44.3258 16.43C44.3458 16.13 44.3558 15.72 44.3558 15.2C44.3558 14.68 44.3458 14.27 44.3258 13.97C44.2858 13.11 44.1258 12.46 43.8458 12.02C43.5658 11.56 43.0558 11.33 42.3158 11.33C41.5958 11.33 41.0958 11.56 40.8158 12.02C40.5358 12.46 40.3658 13.11 40.3058 13.97C40.2858 14.27 40.2758 14.68 40.2758 15.2C40.2758 15.72 40.2858 16.13 40.3058 16.43C40.3658 17.31 40.5358 17.97 40.8158 18.41C41.0958 18.85 41.5958 19.07 42.3158 19.07ZM50.6251 28.7C50.4051 28.7 50.2251 28.62 50.0851 28.46C49.9251 28.32 49.8451 28.14 49.8451 27.92V24.89C49.8451 24.67 49.9251 24.48 50.0851 24.32C50.2251 24.18 50.4051 24.11 50.6251 24.11H52.0651C52.4651 24.11 52.7751 24.03 52.9951 23.87C53.2351 23.73 53.3951 23.51 53.4751 23.21C53.5751 22.93 53.6251 22.62 53.6251 22.28V8.18C53.6251 7.96 53.6951 7.78 53.8351 7.64C53.9951 7.48 54.1851 7.4 54.4051 7.4H59.0851C59.3051 7.4 59.4851 7.48 59.6251 7.64C59.7851 7.78 59.8651 7.96 59.8651 8.18V22.43C59.8651 23.81 59.5651 24.96 58.9651 25.88C58.3851 26.82 57.5651 27.52 56.5051 27.98C55.4451 28.46 54.2151 28.7 52.8151 28.7H50.6251ZM54.4651 5.45C54.2451 5.45 54.0551 5.38 53.8951 5.24C53.7551 5.08 53.6851 4.89 53.6851 4.67V1.52C53.6851 1.3 53.7551 1.11 53.8951 0.95C54.0551 0.789999 54.2451 0.709999 54.4651 0.709999H59.0251C59.2451 0.709999 59.4251 0.789999 59.5651 0.95C59.7251 1.11 59.8051 1.3 59.8051 1.52V4.67C59.8051 4.89 59.7251 5.08 59.5651 5.24C59.4251 5.38 59.2451 5.45 59.0251 5.45H54.4651ZM70.8467 23.3C68.3467 23.3 66.3567 22.66 64.8767 21.38C63.4167 20.08 62.6667 18.1 62.6267 15.44C62.6267 15.36 62.6267 15.26 62.6267 15.14C62.6267 15 62.6267 14.9 62.6267 14.84C62.6867 13.18 63.0467 11.78 63.7067 10.64C64.3867 9.48 65.3267 8.6 66.5267 8C67.7467 7.4 69.1767 7.1 70.8167 7.1C72.6567 7.1 74.1767 7.47 75.3767 8.21C76.5967 8.93 77.5067 9.9 78.1067 11.12C78.7067 12.32 79.0067 13.67 79.0067 15.17V16.01C79.0067 16.21 78.9267 16.39 78.7667 16.55C78.6067 16.71 78.4167 16.79 78.1967 16.79H68.9567C68.9567 16.79 68.9567 16.81 68.9567 16.85C68.9567 16.89 68.9567 16.93 68.9567 16.97C68.9567 17.45 69.0167 17.88 69.1367 18.26C69.2767 18.62 69.4867 18.91 69.7667 19.13C70.0467 19.33 70.3867 19.43 70.7867 19.43C71.0467 19.43 71.2667 19.39 71.4467 19.31C71.6267 19.23 71.7767 19.13 71.8967 19.01C72.0367 18.87 72.1567 18.74 72.2567 18.62C72.4367 18.44 72.5867 18.33 72.7067 18.29C72.8267 18.23 73.0067 18.2 73.2467 18.2H77.9567C78.1367 18.2 78.2867 18.26 78.4067 18.38C78.5467 18.5 78.6067 18.65 78.5867 18.83C78.5667 19.19 78.3967 19.63 78.0767 20.15C77.7567 20.65 77.2767 21.14 76.6367 21.62C76.0167 22.1 75.2167 22.5 74.2367 22.82C73.2567 23.14 72.1267 23.3 70.8467 23.3ZM68.9567 13.43H72.6767V13.37C72.6767 12.83 72.6067 12.37 72.4667 11.99C72.3267 11.61 72.1167 11.33 71.8367 11.15C71.5567 10.95 71.2167 10.85 70.8167 10.85C70.4167 10.85 70.0767 10.95 69.7967 11.15C69.5167 11.33 69.3067 11.61 69.1667 11.99C69.0267 12.37 68.9567 12.83 68.9567 13.37V13.43ZM89.038 23.3C87.538 23.3 86.188 23.04 84.988 22.52C83.808 21.98 82.858 21.2 82.138 20.18C81.438 19.14 81.048 17.89 80.968 16.43C80.948 16.11 80.938 15.71 80.938 15.23C80.938 14.75 80.948 14.34 80.968 14C81.048 12.52 81.438 11.27 82.138 10.25C82.838 9.21 83.788 8.43 84.988 7.91C86.188 7.37 87.538 7.1 89.038 7.1C90.518 7.1 91.778 7.31 92.818 7.73C93.878 8.15 94.728 8.67 95.368 9.29C96.028 9.91 96.518 10.53 96.838 11.15C97.158 11.77 97.328 12.29 97.348 12.71C97.368 12.93 97.288 13.12 97.108 13.28C96.948 13.44 96.768 13.52 96.568 13.52H91.738C91.518 13.52 91.348 13.47 91.228 13.37C91.108 13.25 90.998 13.09 90.898 12.89C90.698 12.45 90.468 12.13 90.208 11.93C89.948 11.71 89.598 11.6 89.158 11.6C88.538 11.6 88.078 11.82 87.778 12.26C87.478 12.68 87.318 13.31 87.298 14.15C87.258 14.99 87.258 15.7 87.298 16.28C87.338 17.14 87.498 17.78 87.778 18.2C88.078 18.6 88.538 18.8 89.158 18.8C89.658 18.8 90.028 18.7 90.268 18.5C90.508 18.28 90.718 17.95 90.898 17.51C90.978 17.31 91.078 17.16 91.198 17.06C91.338 16.94 91.518 16.88 91.738 16.88H96.568C96.768 16.88 96.948 16.96 97.108 17.12C97.288 17.28 97.368 17.47 97.348 17.69C97.328 17.97 97.218 18.35 97.018 18.83C96.838 19.29 96.548 19.78 96.148 20.3C95.768 20.8 95.258 21.28 94.618 21.74C93.978 22.2 93.198 22.58 92.278 22.88C91.358 23.16 90.278 23.3 89.038 23.3ZM108.491 23C107.131 23 105.931 22.8 104.891 22.4C103.871 22 103.071 21.35 102.491 20.45C101.931 19.53 101.651 18.32 101.651 16.82V11.99H99.2813C99.0613 11.99 98.8713 11.92 98.7113 11.78C98.5713 11.62 98.5013 11.43 98.5013 11.21V8.18C98.5013 7.96 98.5713 7.78 98.7113 7.64C98.8713 7.48 99.0613 7.4 99.2813 7.4H101.651V2.48C101.651 2.26 101.721 2.08 101.861 1.94C102.021 1.78 102.211 1.7 102.431 1.7H106.781C107.001 1.7 107.181 1.78 107.321 1.94C107.481 2.08 107.561 2.26 107.561 2.48V7.4H111.341C111.561 7.4 111.741 7.48 111.881 7.64C112.041 7.78 112.121 7.96 112.121 8.18V11.21C112.121 11.43 112.041 11.62 111.881 11.78C111.741 11.92 111.561 11.99 111.341 11.99H107.561V16.31C107.561 16.89 107.681 17.35 107.921 17.69C108.161 18.01 108.541 18.17 109.061 18.17H111.581C111.801 18.17 111.981 18.25 112.121 18.41C112.281 18.55 112.361 18.73 112.361 18.95V22.22C112.361 22.44 112.281 22.63 112.121 22.79C111.981 22.93 111.801 23 111.581 23H108.491ZM115.751 23C115.551 23 115.371 22.93 115.211 22.79C115.051 22.63 114.971 22.44 114.971 22.22V2.78C114.971 2.56 115.051 2.38 115.211 2.24C115.371 2.08 115.551 2 115.751 2H119.741C120.101 2 120.361 2.09 120.521 2.27C120.681 2.43 120.791 2.55 120.851 2.63L127.031 12.56V2.78C127.031 2.56 127.111 2.38 127.271 2.24C127.431 2.08 127.611 2 127.811 2H132.341C132.561 2 132.741 2.08 132.881 2.24C133.041 2.38 133.121 2.56 133.121 2.78V22.22C133.121 22.44 133.041 22.63 132.881 22.79C132.741 22.93 132.561 23 132.341 23H128.381C128.001 23 127.731 22.92 127.571 22.76C127.411 22.58 127.301 22.45 127.241 22.37L121.061 13.01V22.22C121.061 22.44 120.981 22.63 120.821 22.79C120.681 22.93 120.501 23 120.281 23H115.751ZM141.415 23.3C140.315 23.3 139.325 23.09 138.445 22.67C137.585 22.25 136.905 21.69 136.405 20.99C135.925 20.27 135.685 19.47 135.685 18.59C135.685 17.15 136.265 16.02 137.425 15.2C138.605 14.36 140.175 13.78 142.135 13.46L145.585 12.92V12.71C145.585 12.09 145.485 11.63 145.285 11.33C145.105 11.01 144.715 10.85 144.115 10.85C143.695 10.85 143.355 10.93 143.095 11.09C142.835 11.25 142.595 11.48 142.375 11.78C142.175 12 141.915 12.11 141.595 12.11H137.365C137.145 12.11 136.975 12.05 136.855 11.93C136.735 11.81 136.685 11.65 136.705 11.45C136.725 11.09 136.875 10.67 137.155 10.19C137.435 9.69 137.865 9.21 138.445 8.75C139.045 8.27 139.815 7.88 140.755 7.58C141.695 7.26 142.825 7.1 144.145 7.1C145.485 7.1 146.635 7.25 147.595 7.55C148.555 7.85 149.345 8.27 149.965 8.81C150.585 9.35 151.045 10.01 151.345 10.79C151.645 11.55 151.795 12.4 151.795 13.34V22.22C151.795 22.44 151.715 22.63 151.555 22.79C151.415 22.93 151.235 23 151.015 23H146.635C146.435 23 146.255 22.93 146.095 22.79C145.935 22.63 145.855 22.44 145.855 22.22V21.26C145.595 21.66 145.245 22.01 144.805 22.31C144.385 22.61 143.885 22.85 143.305 23.03C142.745 23.21 142.115 23.3 141.415 23.3ZM143.155 19.37C143.655 19.37 144.085 19.27 144.445 19.07C144.825 18.85 145.125 18.52 145.345 18.08C145.565 17.64 145.675 17.09 145.675 16.43V16.22L143.515 16.64C142.775 16.78 142.255 16.99 141.955 17.27C141.655 17.53 141.505 17.82 141.505 18.14C141.505 18.38 141.575 18.59 141.715 18.77C141.855 18.95 142.045 19.1 142.285 19.22C142.545 19.32 142.835 19.37 143.155 19.37ZM155.559 23C155.339 23 155.149 22.93 154.989 22.79C154.849 22.63 154.779 22.44 154.779 22.22V8.18C154.779 7.96 154.849 7.78 154.989 7.64C155.149 7.48 155.339 7.4 155.559 7.4H159.669C159.889 7.4 160.069 7.48 160.209 7.64C160.369 7.78 160.449 7.96 160.449 8.18V9.17C160.829 8.69 161.379 8.24 162.099 7.82C162.819 7.38 163.669 7.14 164.649 7.1C166.989 7.04 168.569 7.88 169.389 9.62C169.849 8.9 170.499 8.3 171.339 7.82C172.199 7.34 173.109 7.1 174.069 7.1C175.109 7.1 176.039 7.34 176.859 7.82C177.699 8.28 178.369 9 178.869 9.98C179.369 10.94 179.619 12.2 179.619 13.76V22.22C179.619 22.44 179.539 22.63 179.379 22.79C179.239 22.93 179.059 23 178.839 23H174.459C174.239 23 174.049 22.93 173.889 22.79C173.749 22.63 173.679 22.44 173.679 22.22V13.94C173.679 13.42 173.599 13.01 173.439 12.71C173.279 12.39 173.069 12.16 172.809 12.02C172.569 11.86 172.279 11.78 171.939 11.78C171.619 11.78 171.329 11.86 171.069 12.02C170.809 12.16 170.599 12.39 170.439 12.71C170.299 13.01 170.229 13.42 170.229 13.94V22.22C170.229 22.44 170.149 22.63 169.989 22.79C169.849 22.93 169.669 23 169.449 23H165.069C164.849 23 164.659 22.93 164.499 22.79C164.359 22.63 164.289 22.44 164.289 22.22V13.94C164.289 13.42 164.209 13.01 164.049 12.71C163.889 12.39 163.679 12.16 163.419 12.02C163.179 11.86 162.889 11.78 162.549 11.78C162.229 11.78 161.939 11.86 161.679 12.02C161.419 12.18 161.209 12.41 161.049 12.71C160.889 13.01 160.809 13.42 160.809 13.94V22.22C160.809 22.44 160.729 22.63 160.569 22.79C160.429 22.93 160.249 23 160.029 23H155.559ZM190.231 23.3C187.731 23.3 185.741 22.66 184.261 21.38C182.801 20.08 182.051 18.1 182.011 15.44C182.011 15.36 182.011 15.26 182.011 15.14C182.011 15 182.011 14.9 182.011 14.84C182.071 13.18 182.431 11.78 183.091 10.64C183.771 9.48 184.711 8.6 185.911 8C187.131 7.4 188.561 7.1 190.201 7.1C192.041 7.1 193.561 7.47 194.761 8.21C195.981 8.93 196.891 9.9 197.491 11.12C198.091 12.32 198.391 13.67 198.391 15.17V16.01C198.391 16.21 198.311 16.39 198.151 16.55C197.991 16.71 197.801 16.79 197.581 16.79H188.341C188.341 16.79 188.341 16.81 188.341 16.85C188.341 16.89 188.341 16.93 188.341 16.97C188.341 17.45 188.401 17.88 188.521 18.26C188.661 18.62 188.871 18.91 189.151 19.13C189.431 19.33 189.771 19.43 190.171 19.43C190.431 19.43 190.651 19.39 190.831 19.31C191.011 19.23 191.161 19.13 191.281 19.01C191.421 18.87 191.541 18.74 191.641 18.62C191.821 18.44 191.971 18.33 192.091 18.29C192.211 18.23 192.391 18.2 192.631 18.2H197.341C197.521 18.2 197.671 18.26 197.791 18.38C197.931 18.5 197.991 18.65 197.971 18.83C197.951 19.19 197.781 19.63 197.461 20.15C197.141 20.65 196.661 21.14 196.021 21.62C195.401 22.1 194.601 22.5 193.621 22.82C192.641 23.14 191.511 23.3 190.231 23.3ZM188.341 13.43H192.061V13.37C192.061 12.83 191.991 12.37 191.851 11.99C191.711 11.61 191.501 11.33 191.221 11.15C190.941 10.95 190.601 10.85 190.201 10.85C189.801 10.85 189.461 10.95 189.181 11.15C188.901 11.33 188.691 11.61 188.551 11.99C188.411 12.37 188.341 12.83 188.341 13.37V13.43Z" fill="#6EE7B7"/>
</svg>
